<svg xmlns="http://www.w3.org/2000/svg" width="187.632" height="87" viewBox="0 0 187.632 87">
  <g id="Group_43" data-name="Group 43" transform="translate(-160.468 -39)">
    <g id="soup-cup-and-soup" transform="translate(279.323 51.329)">
      <path id="Path_8" data-name="Path 8" d="M56.828,32.7a.828.828,0,1,1,1.589.467,32.57,32.57,0,0,1-1.234,3.462,31.712,31.712,0,0,1-1.606,3.262.827.827,0,0,1-1.439-.817,28.874,28.874,0,0,0,1.523-3.084,32.553,32.553,0,0,0,1.167-3.29ZM33.906,3.505a1.187,1.187,0,0,1,1.678,1.678c-1.773,1.778-1,3.228-.1,4.912,1.334,2.484,2.856,5.334.283,9.791a1.184,1.184,0,0,1-2.05-1.184c1.917-3.317.722-5.546-.322-7.49-1.339-2.523-2.5-4.69.511-7.707ZM44.719.343A1.188,1.188,0,1,1,46.4,2.022c-1.773,1.773-1,3.228-.1,4.912,1.334,2.484,2.856,5.334.283,9.791a1.184,1.184,0,0,1-2.05-1.184c1.917-3.317.722-5.546-.322-7.49-1.345-2.523-2.506-4.69.511-7.707ZM55.533,3.505a1.187,1.187,0,0,1,1.678,1.678c-1.778,1.778-1,3.228-.1,4.912,1.334,2.484,2.856,5.334.283,9.791a1.184,1.184,0,1,1-2.05-1.184c1.917-3.317.722-5.546-.322-7.49-1.345-2.523-2.506-4.69.511-7.707ZM1.227,12.524A4.939,4.939,0,0,1,.271,7.673,4.989,4.989,0,0,1,1.549,5.717a5.192,5.192,0,0,1,7.113-.083l.028.022,21.171,18.12H67.169a1.1,1.1,0,0,1,1.106,1.106c0,.044-.006.089-.006.133-.283,6.74-1.85,12.619-5.073,17.4-3.257,4.821-8.18,8.485-15.137,10.745L48,53.177v3.34a.47.47,0,0,1-.467.467H26.855a.607.607,0,0,1-.606-.606V53.143a1.173,1.173,0,0,1-.189-.089c-6.385-3.017-10.886-6.99-13.87-11.741A32.925,32.925,0,0,1,7.484,24.921,1.1,1.1,0,0,1,8.54,23.77h.05v-.006h5.785L1.388,12.69a1.143,1.143,0,0,1-.161-.167ZM2.35,8.406a2.793,2.793,0,0,0,.55,2.678L17.592,23.626H26.3L7.262,7.334,7.24,7.317a3.1,3.1,0,0,0-3.012-.7,3.018,3.018,0,0,0-1.161.695A2.886,2.886,0,0,0,2.35,8.406Zm11.708,31.74A29.632,29.632,0,0,0,26.86,51h20.7c6.362-2.1,10.852-5.446,13.808-9.824C64.185,37,65.641,32,66.013,26.112H9.751a29.688,29.688,0,0,0,4.306,14.031ZM52.61,41.435a.827.827,0,0,1,1.339.972c-.345.478-.706.939-1.078,1.384s-.745.856-1.145,1.261A.825.825,0,1,1,50.548,43.9c.356-.361.706-.75,1.056-1.161s.683-.85,1.006-1.3Z" transform="translate(0.002 0.002)" fill="#23591e" stroke="#23591e" stroke-width="1"/>
    </g>
    <g id="Group_42" data-name="Group 42" transform="translate(159.701 39.306)">
      <text id="Eight" transform="translate(25.774 30.694)" fill="#6c6c6c" font-size="31" font-family="AvenirNext-Bold, Avenir Next" font-weight="700"><tspan x="0" y="0">Eight</tspan></text>
      <text id="Soups" transform="translate(0.767 70.694)" fill="#9ab54a" font-size="46" font-family="Noteworthy-Light, Noteworthy" font-weight="300"><tspan x="0" y="0">Soups</tspan></text>
    </g>
  </g>
</svg>
